<?xml version="1.0" encoding="iso-8859-1"?>
<!-- Generator: Adobe Illustrator 19.0.0, SVG Export Plug-In . SVG Version: 6.00 Build 0)  -->
<svg version="1.1" id="Layer_1" xmlns="http://www.w3.org/2000/svg" xmlns:xlink="http://www.w3.org/1999/xlink" x="0px" y="0px"
	 viewBox="0 0 512.002 512.002" style="enable-background:new 0 0 512.002 512.002;" xml:space="preserve">
<path style="fill:#91AAC4;" d="M307.399,413.557l-2.673,14.061c-0.316,1.674-1.677,2.878-3.254,2.878h-31.497
	c-2.166,0-3.86-2.035-3.653-4.389l1.76-22.186l11.065-139.62l41.617-20.014l-28.888,153.925c-0.083,0.443-0.091,0.887-0.017,1.321
	c0.158,1.058,0.747,2,1.635,2.552l12.286,7.583C307.033,410.445,307.689,412.01,307.399,413.557z"/>
<path style="fill:#3F5666;" d="M307.399,413.557l-2.673,14.061c-0.316,1.674-1.677,2.878-3.254,2.878h-31.497
	c-2.166,0-3.86-2.035-3.653-4.389l1.76-22.186l23.778-4.389c0.158,1.058,0.747,2,1.635,2.552l12.286,7.583
	C307.033,410.445,307.689,412.01,307.399,413.557z"/>
<path style="fill:#91AAC4;" d="M119.51,346.8v48.976c0,0.833,0.28,1.629,0.786,2.253c0.253,0.326,0.56,0.597,0.922,0.823
	l14.658,9.075c0.867,0.542,1.472,1.429,1.653,2.434l2.881,15.862c0.406,2.226-1.301,4.271-3.55,4.271h-35.539
	c-1.996,0-3.612-1.62-3.612-3.62v-99.556l11.208-61.047l71.798,13.572l-39.385,65.146L119.51,346.8z"/>
<path style="fill:#3F5666;" d="M136.859,430.495h-35.538c-1.996,0-3.612-1.62-3.612-3.62v-24.936l22.588-3.909
	c0.253,0.326,0.56,0.597,0.922,0.823l14.658,9.075c0.867,0.542,1.472,1.429,1.653,2.434l2.881,15.862
	C140.815,428.451,139.107,430.495,136.859,430.495z"/>
<ellipse style="fill:#E8C1B5;" cx="182.282" cy="295.977" rx="52.746" ry="47.271"/>
<path style="fill:#CCA295;" d="M149.661,295.975c0-23.024,18.368-42.194,42.686-46.406c-3.258-0.564-6.619-0.869-10.062-0.869
	c-29.132,0-52.749,21.165-52.749,47.275c0,26.11,23.617,47.275,52.749,47.275c3.442,0,6.803-0.305,10.062-0.869
	C168.029,338.169,149.661,319,149.661,295.975z"/>
<path style="fill:#2F3F4A;" d="M33.797,272.091v-27.912c0-1.728-1.398-3.129-3.123-3.129l0,0c-12.613,0-22.837,10.244-22.837,22.88
	v27.912c0,1.728,1.398,3.129,3.123,3.129l0,0C23.573,294.971,33.797,284.727,33.797,272.091z"/>
<path style="fill:#E1E9F2;" d="M504.163,131.742v21.817c0,13.103-23.771,24.106-23.771,24.106l-10.867,2.487l-47.031,10.773
	c0,0-0.084,0.031-0.23,0.084h-0.01c-2.257,0.846-28.066,69.308-45.704,79.235c-32.559,18.328-21.556,124.123-21.556,124.123
	c0.052,0.439,0.188,0.867,0.387,1.243c0.251,0.47,0.585,0.878,1.003,1.202l18.745,14.315c1.139,0.867,1.651,2.32,1.317,3.72
	l-3.072,12.873c-0.397,1.63-1.839,2.779-3.521,2.779h-33.667c-1.839,0-3.459-1.275-3.887-3.082l-5.047-24.545l-1.452-98.262
	c-0.418-1.755-1.964-3.02-3.762-3.062l-3.636-0.136l-115.305-4.075l-61.012-2.163c-1.055-0.031-2.09,0.345-2.853,1.076
	L86.486,345.33c-0.742,0.679-1.714,1.066-2.738,1.066H66.351c-2.205,0-4.002,1.787-4.002,4.002v49.058
	c0,0.648,0.167,1.285,0.46,1.849c0.272,0.522,0.658,1.003,1.139,1.358l9.258,6.959c0.731,0.554,1.264,1.348,1.484,2.226
	l3.417,13.678c0.627,2.529-1.275,4.974-3.877,4.974H41.378c-2.205,0-3.992-1.787-3.992-3.992V323.91
	c0-1.557,0.888-2.967,2.288-3.626l11.4-12.852c1.4-0.669,2.299-2.079,2.299-3.626l-0.366-65.599l-0.282-51.451
	c-0.084-15.663,5.204-30.145,14.179-41.618c11.797-15.099,29.936-25.036,50.51-25.704l66.33-0.261l108.231-0.408l23.792-0.094
	l106.506-15.224c6.917,0,13.531,2.769,18.401,7.68l5.632,5.684c4.869,4.901,11.494,7.659,18.401,7.659h32.204
	C500.914,124.47,504.163,127.73,504.163,131.742z"/>
<path style="fill:#B3D2F2;" d="M57.76,325.96c0-1.607,0.892-3.076,2.289-3.756l11.398-13.319c1.405-0.691,2.299-2.149,2.299-3.756
	l-0.36-67.956L73.1,183.866c-0.086-16.238,5.205-31.233,14.18-43.122c6.901-9.152,15.983-16.452,26.442-21.092
	c-19.043,1.67-35.732,11.294-46.818,25.485c-8.976,11.475-14.266,25.949-14.18,41.621l0.285,51.45l0.36,65.59
	c0,1.551-0.892,2.959-2.299,3.625l-11.399,12.859c-1.396,0.656-2.289,2.074-2.289,3.626v102.596c0,2.207,1.786,3.997,3.989,3.997
	h16.386V325.96H57.76z"/>
<g>
	<path style="fill:#3F5666;" d="M74.227,430.495H41.373c-2.213,0-3.992-1.792-3.992-4.008v-21.389l25.432-3.791
		c0.262,0.525,0.65,0.995,1.138,1.357l9.257,6.958c0.731,0.552,1.264,1.348,1.481,2.226l3.414,13.681
		C78.726,428.051,76.829,430.495,74.227,430.495z"/>
	<path style="fill:#3F5666;" d="M376.449,414.842l-3.079,12.875c-0.389,1.629-1.834,2.777-3.513,2.777h-33.669
		c-1.842,0-3.459-1.266-3.884-3.076l-5.057-24.547l28.133-7.257c0.243,0.47,0.587,0.878,1.011,1.204l18.74,14.305
		C376.268,411.991,376.783,413.449,376.449,414.842z"/>
</g>
<path style="fill:#2F3F4A;" d="M293.531,131.903c0,30.773-24.903,55.722-55.619,55.722c-30.725,0-55.628-24.949-55.628-55.722
	c0-4.377,0.504-8.64,1.463-12.732l108.227-0.409C292.989,122.978,293.531,127.374,293.531,131.903z"/>
<path style="fill:#E8C1B5;" d="M504.163,131.742v21.817c0,13.103-23.771,24.106-23.771,24.106l-10.867,2.487
	c-10.637-18.871-4.023-40.469,3.741-55.683h23.646C500.914,124.47,504.163,127.73,504.163,131.742z"/>
<g>
	<path style="fill:#2F3F4A;" d="M106.842,191.661c0,25.987-21.029,47.054-46.957,47.054c-2.336,0-4.635-0.171-6.876-0.505
		l-0.285-51.45c-0.086-15.672,5.205-30.145,14.18-41.621C89.508,148.536,106.842,168.071,106.842,191.661z"/>
	<path style="fill:#2F3F4A;" d="M318.405,301.412l-115.313-4.072c5.594-23.865,29.111-41.773,57.272-41.773
		C290.111,255.567,314.672,275.539,318.405,301.412z"/>
</g>
<path style="fill:#91AAC4;" d="M423.865,108.975c-3.749-6.081-13.382-19.796-27.807-27.057c-2.489-1.253-5.444,0.474-5.532,3.264
	c-0.326,10.333-0.134,32.633,6.687,44.796c1.207,2.151,4.121,2.571,5.912,0.878c4.02-3.8,11.461-10.57,19.791-16.849
	C424.485,112.826,424.895,110.647,423.865,108.975z"/>
<path d="M41.634,272.091v-21.37c0-0.033,0.005-0.067,0.005-0.101v-41.032c0-4.34,1.191-8.466,3.306-12.022l0.576,104.326
	c-0.109,0.109-0.213,0.219-0.315,0.334l-10.626,11.985c-3.11,2.191-5.033,5.813-5.033,9.695v19.343c0,4.329,3.509,7.837,7.837,7.837
	s7.837-3.508,7.837-7.837v-17.434c0.109-0.109,0.214-0.22,0.316-0.335l10.629-11.987c3.113-2.197,5.04-5.823,5.04-9.734
	l-0.316-57.231c29.749-0.541,53.788-24.935,53.788-54.864c0-22.182-13.585-41.905-33.21-50.416
	c10.043-8.53,22.689-13.516,36.092-13.979l57.093-0.218c-0.122,1.613-0.207,3.233-0.207,4.857c0,35.047,28.47,63.559,63.465,63.559
	c34.989,0,63.456-28.512,63.456-63.559c0-1.785-0.101-3.566-0.251-5.343l14.679-0.056c0.361-0.001,0.72-0.027,1.077-0.078
	l13.291-1.9c4.285-0.613,7.261-4.583,6.649-8.867c-0.613-4.285-4.584-7.253-8.867-6.649l-12.754,1.823l-95.336,0.366l-36.14,0.137
	c-0.007,0-0.015,0.002-0.022,0.002l-66.311,0.254c-0.076,0-0.152,0.002-0.227,0.004c-22.172,0.728-42.738,11.196-56.424,28.715
	c-8.14,10.406-13.246,22.456-15.075,35.321c-12.089,6.901-19.69,19.753-19.69,33.956v23.988C11.28,235.851,0,248.595,0,263.93v27.91
	c0,6.047,4.917,10.966,10.96,10.966C27.874,302.807,41.634,289.028,41.634,272.091z M285.406,126.625
	c0.192,1.751,0.288,3.514,0.288,5.279c0,26.405-21.436,47.886-47.782,47.886c-26.352,0-47.792-21.482-47.792-47.886
	c0-1.648,0.084-3.289,0.25-4.918l31.342-0.12L285.406,126.625z M99.004,191.661c0,21.317-17.052,38.716-38.2,39.207l-0.245-44.149
	c-0.004-0.795,0.009-1.587,0.036-2.377c0.008-0.261,0.026-0.521,0.038-0.783c0.024-0.528,0.05-1.055,0.089-1.58
	c0.022-0.307,0.051-0.613,0.078-0.92c0.042-0.478,0.087-0.954,0.14-1.429c0.036-0.321,0.076-0.641,0.117-0.96
	c0.06-0.46,0.123-0.92,0.192-1.377c0.049-0.319,0.098-0.637,0.153-0.956c0.078-0.462,0.164-0.923,0.253-1.382
	c0.06-0.305,0.117-0.611,0.181-0.915c0.102-0.485,0.214-0.967,0.328-1.447c0.065-0.273,0.125-0.548,0.193-0.819
	c0.15-0.595,0.312-1.185,0.482-1.773c0.044-0.153,0.082-0.307,0.126-0.46c0.218-0.74,0.452-1.475,0.7-2.206
	c0.068-0.2,0.143-0.396,0.213-0.596c0.186-0.53,0.375-1.058,0.577-1.583c0.101-0.263,0.21-0.525,0.316-0.787
	c0.183-0.457,0.369-0.912,0.563-1.364c0.12-0.28,0.246-0.558,0.371-0.836c0.194-0.433,0.393-0.863,0.598-1.29
	c0.134-0.279,0.27-0.557,0.409-0.834c0.213-0.427,0.434-0.853,0.658-1.276c0.141-0.265,0.282-0.532,0.427-0.796
	c0.242-0.441,0.495-0.879,0.749-1.314c0.139-0.238,0.275-0.478,0.417-0.714c0.305-0.505,0.621-1.004,0.941-1.503
	c0.103-0.16,0.202-0.323,0.306-0.482c0.023-0.034,0.047-0.067,0.07-0.101C86.941,158.476,99.004,173.978,99.004,191.661z
	 M25.96,272.091c0,6.643-4.318,12.295-10.287,14.282V263.93c0-6.645,4.318-12.297,10.287-14.284V272.091z"/>
<path d="M397.839,241.925c-3.743-2.179-8.538-0.911-10.716,2.829c-8.245,14.159-12.828,17.766-14.416,18.66
	c-16.241,9.142-25.063,33.807-26.972,75.404c-0.991,21.574,0.241,41.627,0.983,50.937l-11.777,3.038l-1.305-88.298
	c-0.008-0.572-0.079-1.141-0.211-1.697c-1.029-4.329-4.374-7.628-8.537-8.704c-1.135-4.326-2.774-8.515-4.925-12.508
	c-6.501-12.071-17.385-21.95-30.648-27.818c-9.062-4.007-18.802-6.04-28.947-6.04c-15.026,0-29.192,4.461-40.968,12.897
	c-0.003,0.002-0.005,0.004-0.008,0.006c-10.316,7.393-17.971,17.41-22.046,28.661l-55.025-1.949
	c-3.119-0.078-6.204,1.07-8.453,3.198L82.26,338.559H66.351c-6.529,0-11.839,5.311-11.839,11.839v44.222l-9.289,1.386v-13.834
	c0-4.328-3.509-7.837-7.837-7.837s-7.837,3.508-7.837,7.837v22.802c-0.001,0.042-0.005,0.081-0.005,0.123v21.388
	c0,1.275,0.208,2.5,0.581,3.652c0.347,1.083,0.846,2.114,1.523,3.104c0.406,0.58,0.866,1.127,1.365,1.627
	c2.235,2.236,5.201,3.467,8.354,3.467H74.23c0.447,0,0.89-0.029,1.329-0.079c0.063-0.006,0.123-0.021,0.185-0.028
	c0.355-0.045,0.708-0.103,1.057-0.181c0.152-0.033,0.3-0.078,0.449-0.117c0.248-0.066,0.495-0.133,0.74-0.215
	c0.195-0.066,0.386-0.141,0.578-0.217c0.126-0.049,0.255-0.088,0.379-0.142c0.124-0.054,0.266-0.119,0.418-0.191
	c0.031-0.016,0.063-0.031,0.095-0.047c0.319-0.155,0.682-0.352,1.075-0.601c0.017-0.01,0.032-0.02,0.049-0.03
	c0.037-0.023,0.071-0.043,0.108-0.067c0.101-0.065,0.202-0.131,0.301-0.2c0.107-0.074,0.199-0.166,0.302-0.243
	c0.226-0.169,0.446-0.347,0.66-0.533c0.177-0.153,0.35-0.306,0.517-0.469c0.173-0.17,0.338-0.351,0.502-0.533
	c0.137-0.15,0.288-0.285,0.417-0.443c0.125-0.153,0.245-0.309,0.356-0.469c0.201-0.271,0.385-0.551,0.56-0.835
	c0.003-0.005,0.007-0.01,0.01-0.016c0.232-0.377,0.44-0.765,0.626-1.162c0.018-0.038,0.031-0.077,0.049-0.116
	c0.153-0.333,0.288-0.673,0.409-1.02c0.043-0.121,0.078-0.245,0.116-0.368c0.082-0.261,0.155-0.526,0.217-0.793
	c0.038-0.161,0.073-0.322,0.103-0.484c0.044-0.234,0.078-0.469,0.109-0.706c0.023-0.181,0.049-0.361,0.064-0.542
	c0.021-0.257,0.026-0.517,0.031-0.777c0.002-0.149,0.014-0.298,0.01-0.448c-0.007-0.395-0.031-0.793-0.077-1.194
	c-0.055-0.443-0.135-0.881-0.241-1.336c-0.008-0.034-0.017-0.068-0.025-0.102l-3.417-13.677c-0.044-0.177-0.102-0.348-0.155-0.522
	c-0.044-0.146-0.08-0.295-0.131-0.439c-0.01-0.028-0.023-0.056-0.033-0.086c-0.768-2.187-2.178-4.126-4.059-5.546l-7.729-5.81
	v-43.314h13.563c2.17,0,4.272-0.596,6.123-1.712v74.353c0,6.321,5.138,11.463,11.452,11.463h35.537c3.392,0,6.587-1.494,8.768-4.097
	c0.005-0.006,0.009-0.014,0.015-0.02c0,0,0.002-0.002,0.003-0.003c0.044-0.052,0.078-0.109,0.121-0.162
	c0.223-0.277,0.439-0.557,0.632-0.849c0.079-0.12,0.143-0.248,0.217-0.37c0.143-0.234,0.29-0.466,0.416-0.708
	c0.113-0.217,0.203-0.444,0.301-0.668c0.068-0.156,0.147-0.306,0.208-0.465c0.13-0.334,0.235-0.677,0.332-1.023
	c0.015-0.052,0.037-0.102,0.05-0.155c0.28-1.054,0.394-2.15,0.363-3.253c-0.016-0.579-0.059-1.159-0.162-1.74l-2.877-15.823
	c-0.562-3.182-2.462-5.992-5.241-7.732l-12.663-7.844V354.02l14.638-1.212c2.505-0.208,4.76-1.604,6.059-3.756l1.276-2.11v6.374
	c0,4.329,3.509,7.837,7.837,7.837c4.328,0,7.837-3.508,7.837-7.837v-4.534c3.09,0.834,6.252,1.457,9.459,1.836v9.57
	c0,4.329,3.509,7.837,7.837,7.837c4.328,0,7.837-3.508,7.837-7.837v-9.575c3.066-0.365,6.093-0.949,9.056-1.729v4.432
	c0,4.329,3.509,7.837,7.837,7.837c4.328,0,7.837-3.508,7.837-7.837v-10.869c13.965-8.119,23.707-21.188,26.883-35.897l26.131,0.923
	l-7.593,95.813c0,0.006-0.002,0.012-0.003,0.018l-1.753,22.114c-0.149,1.691,0.056,3.374,0.583,4.942
	c0.526,1.569,1.371,3.025,2.499,4.259c2.162,2.364,5.214,3.719,8.373,3.719h31.503c4.519,0,8.504-2.8,10.234-6.907
	c0.315-0.744,0.563-1.527,0.718-2.349l1.233-6.487l1.444-7.588c0.165-0.881,0.226-1.766,0.189-2.639
	c-0.149-3.641-1.997-7.068-5.028-9.119c-0.124-0.085-0.245-0.173-0.372-0.254l-3.5-2.158l-6.307-3.893l16.47-87.753l1.476,0.052
	l1.383,93.553c-0.005,0.546,0.043,1.101,0.157,1.657l2.451,11.897l2.6,12.645c0.017,0.076,0.032,0.153,0.051,0.229
	c1.272,5.366,6.006,9.113,11.514,9.113h33.667c1.33,0,2.615-0.228,3.814-0.65c0.289-0.101,0.574-0.216,0.853-0.34
	c0.004-0.002,0.008-0.003,0.013-0.005c2.852-1.271,5.104-3.682,6.149-6.745c0.119-0.346,0.228-0.697,0.316-1.06l2.041-8.552
	l1.033-4.32c1.054-4.406-0.588-9.028-4.185-11.773L362.603,391.7c-3.807-39.139-2.319-103.306,17.793-114.626
	c6.136-3.454,12.578-11.217,20.273-24.432C402.845,248.9,401.578,244.103,397.839,241.925z M60.164,409.621l7.252,5.45l1.893,7.585
	H45.223v-10.807L60.164,409.621z M353.227,404.261l14.962,11.424l-0.504,2.11l-1.163,4.862h-27.197l-1.725-8.372l-1.17-5.692
	L353.227,404.261z M228.524,273.366c0.001-0.001,0.002-0.001,0.003-0.002c9.098-6.518,20.108-9.964,31.84-9.964
	c7.947,0,15.555,1.582,22.607,4.7c10.094,4.466,18.33,11.895,23.188,20.917c0.737,1.369,1.393,2.767,1.966,4.192l-54.574-1.927
	l-39.431-1.397C217.373,283.513,222.297,277.828,228.524,273.366z M118.381,406.314l11.771,7.287l1.645,9.056h-26.251v-14.123
	L118.381,406.314z M118.858,338.993c-4.064,0.336-7.19,3.732-7.19,7.811v44.767l-6.123,1.06v-54.328l21.392-19.904
	c2.859,5.841,6.827,11.208,11.742,15.843l-1.981,3.277L118.858,338.993z M210.855,326.358c-1.136-0.641-2.444-1.009-3.841-1.009
	c-4.092,0-7.447,3.137-7.801,7.138c-3.492,1.25-7.16,2.112-10.907,2.559c-1.438-1.725-3.601-2.824-6.023-2.824
	c-2.423,0-4.588,1.101-6.026,2.829c-3.899-0.463-7.705-1.378-11.317-2.709c-0.422-3.93-3.748-6.99-7.79-6.99
	c-1.313,0-2.55,0.327-3.637,0.899c-0.005-0.004-0.01-0.007-0.016-0.011c-6.88-5.059-11.853-11.779-14.326-19.226l4.241-3.947
	l59.343,2.099c0.021,0.001,0.042,0.005,0.063,0.005l22.893,0.811C223.312,313.924,218.087,321.086,210.855,326.358z
	 M300.711,308.629l-15.806,84.217l-8.205,1.514l6.843-86.337L300.711,308.629z M299.184,414.803l-0.667,3.509l-0.828,4.346h-23.232
	l0.961-12.123l13.053-2.408c0.125,0.096,0.262,0.18,0.393,0.271c0.171,0.12,0.335,0.249,0.514,0.36l8.797,5.424L299.184,414.803z"/>
<path d="M496.912,116.634h-32.204c-4.786,0-9.467-1.949-12.833-5.337l-5.635-5.687c-5.968-6.018-13.782-9.51-22.164-9.948
	c-5.678-7.17-13.86-15.387-24.493-20.74c-3.581-1.803-7.771-1.657-11.212,0.39c-3.428,2.039-5.552,5.638-5.677,9.626
	c-0.139,4.395-0.167,10.097,0.187,16.228l-18.064,2.581c-4.285,0.612-7.262,4.583-6.65,8.866c0.559,3.909,3.911,6.729,7.748,6.729
	c0.37,0,0.743-0.026,1.118-0.079l17.668-2.526c1.183,6.277,2.979,12.264,5.677,17.074c1.761,3.139,4.811,5.25,8.372,5.794
	c0.596,0.091,1.192,0.136,1.783,0.136c2.953,0,5.788-1.118,7.979-3.189c3.645-3.446,10.977-10.144,19.123-16.284
	c2.139-1.611,3.571-3.81,4.232-6.206c1.16,0.731,2.254,1.583,3.244,2.582l5.639,5.693c6.297,6.337,15.03,9.971,23.961,9.971h31.618
	v21.253c0,5.02-10.714,12.856-18.525,16.659l-57.057,13.068c-0.317,0.072-0.642,0.169-0.948,0.281
	c-0.1,0.033-0.199,0.068-0.297,0.106c-3.679,1.38-4.365,2.907-10.922,17.509c-0.739,1.645-1.527,3.4-2.358,5.242
	c-1.782,3.943-0.028,8.586,3.916,10.367c1.047,0.473,2.142,0.697,3.22,0.697c2.985,0,5.839-1.716,7.147-4.613
	c0.837-1.851,1.63-3.617,2.373-5.271c1.58-3.517,3.307-7.364,4.448-9.745l54.817-12.554c0.532-0.121,1.048-0.298,1.543-0.527
	c0.273-0.126,6.741-3.14,13.249-7.947c9.998-7.382,15.067-15.213,15.067-23.271v-21.817
	C512,123.412,505.231,116.634,496.912,116.634z M401.96,121.264c-2.303-6.917-3.606-17.076-3.689-28.892
	c7.785,5.463,13.591,12.783,16.943,17.677C410.119,114.046,405.486,118.072,401.96,121.264z"/>
<circle cx="434.897" cy="132.127" r="7.837"/>
<g>
</g>
<g>
</g>
<g>
</g>
<g>
</g>
<g>
</g>
<g>
</g>
<g>
</g>
<g>
</g>
<g>
</g>
<g>
</g>
<g>
</g>
<g>
</g>
<g>
</g>
<g>
</g>
<g>
</g>
</svg>
