<?xml version="1.0" encoding="iso-8859-1"?>
<!-- Generator: Adobe Illustrator 19.0.0, SVG Export Plug-In . SVG Version: 6.00 Build 0)  -->
<svg version="1.1" id="Layer_1" xmlns="http://www.w3.org/2000/svg" xmlns:xlink="http://www.w3.org/1999/xlink" x="0px" y="0px"
	 viewBox="0 0 512.004 512.004" style="enable-background:new 0 0 512.004 512.004;" xml:space="preserve">
<path style="fill:#B79274;" d="M415.984,463.143c4.95-22.209,14.625-76.317,5.53-128.088
	c-5.059-28.798-33.435-71.403-84.339-126.632c-37.429-40.609-76.062-75.857-83.619-82.407c-6.225-5.393-11.798-20.451-14.78-31.641
	c5.546-2.963,11.054-2.731,17.226-2.473c1.62,0.068,3.296,0.138,4.947,0.138c2.032,0,8.217,0,27.856-14.514
	c11.989-8.862,22.898-18.761,29.93-27.162c7.826-9.348,10.92-16.79,9.735-23.417c-1.401-7.838-5.78-14.398-12.664-18.97
	c-19.642-13.045-52.654-6.503-59.072-5.059c-17.994,4.049-40.839,24.849-50.655,34.477c-8.887-3.883-27.052-10.879-51.191-15.326
	c-37.479-6.9-77.858,21.63-86.471,38.854c-6.712,13.425,8.209,29.517,21.957,42.035c14.167,12.9,31.798,25.629,41.111,32.111
	c0.021,0.015,0.043,0.03,0.064,0.045c0.01,0.007,0.02,0.014,0.03,0.021c10.482,7.291,10.639,35.795,10.765,58.698
	c0.062,11.167,0.125,22.715,1.182,32.754c0.25,2.379,0.674,4.782,1.249,7.202c-0.134,0.065-0.271,0.132-0.406,0.196
	c-15.121,7.331-24.981,22.27-25.728,38.985c-1.131,25.284-4.492,43.861-9.46,52.308c-5.908,10.043-2.229,16.86-0.374,19.325
	c3.227,4.286,8.653,6.546,15.244,6.546c2.709,0,5.614-0.382,8.645-1.162c13.476-3.466,30.328-15.32,33.47-37.316
	c1.319-9.238,6.765-16.629,13.469-22.406c0.409,0.437,0.823,0.868,1.235,1.301c-4.519,6.824-7.142,14.758-7.512,23.037
	c-1.131,25.284-4.492,43.861-9.46,52.308c-5.908,10.043-2.229,16.86-0.374,19.325c3.227,4.286,8.654,6.546,15.245,6.546
	c2.709,0,5.614-0.382,8.644-1.162c13.476-3.466,30.328-15.319,33.472-37.316c0.915-6.404,3.905-12.405,8.895-17.928
	c1.411,3.121,2.301,6.579,2.811,10.25l0,0c0.308,2.214,0.473,4.508,0.525,6.86c0,0.024,0.001,0.046,0.001,0.069
	c0.048,2.329-0.018,4.713-0.171,7.129c-0.005,0.067-0.01,0.133-0.014,0.199c-0.074,1.13-0.168,2.267-0.277,3.409
	c-0.008,0.084-0.015,0.169-0.024,0.253c-0.117,1.185-0.25,2.374-0.398,3.565c-0.014,0.112-0.03,0.225-0.044,0.337
	c-0.13,1.021-0.271,2.042-0.421,3.065c-0.04,0.274-0.08,0.547-0.121,0.822c-0.168,1.117-0.344,2.234-0.529,3.347
	c-0.002,0.014-0.005,0.029-0.007,0.043c-0.77,4.605-1.668,9.159-2.525,13.512c-0.727,3.69-1.414,7.173-1.986,10.491
	c-2.905,16.853,3.891,36.302,10.106,49.656c-7.89-0.673-17.882-1.023-29.01-0.258c-0.579,0.04-1.154,0.112-1.73,0.18l0,0
	c-12.558,1.486-24.067,9.622-33.375,23.667c-6.799,10.26-10.169,20.251-10.309,20.671c-0.906,2.72-0.451,5.712,1.226,8.039
	c1.677,2.325,4.37,3.704,7.238,3.704h185.139c3.732,0.78,17.611,3.571,33.028,5.274c8.517,0.941,15.584,1.337,21.477,1.337
	c18.065,0,25.082-3.728,28.879-6.915c4.054-3.402,6.171-8.142,5.963-13.344C444.49,473.286,429.237,465.594,415.984,463.143z"/>
<g>
	<path style="fill:#89684D;" d="M178.77,392.784c2.709,0,5.615-0.382,8.644-1.162c13.476-3.466,30.328-15.319,33.472-37.316
		c0.71-4.976,2.689-9.704,5.87-14.158c0.868-1.588,1.868-2.874,3.024-3.77c-1.627-1.668-0.062-11.325-4-18.122
		c-5.774-9.963-33.474-15.382-44.909-26.687c-4.519,6.824-7.142,14.758-7.512,23.037c-1.131,25.284-4.492,43.861-9.46,52.308
		c-5.908,10.043-2.229,16.86-0.374,19.325C166.753,390.524,172.179,392.784,178.77,392.784z"/>
	<path style="fill:#89684D;" d="M268.126,322.308l-36.673,18.766c0.494,1.783,0.871,3.638,1.137,5.555
		c0.308,2.214,0.473,4.508,0.525,6.86c0,0.024,0.001,0.046,0.001,0.069c0.048,2.329-0.018,4.713-0.171,7.129
		c-0.005,0.067-0.01,0.133-0.014,0.199c-0.074,1.13-0.168,2.267-0.277,3.409c-0.008,0.084-0.015,0.169-0.024,0.253
		c-0.117,1.185-0.25,2.374-0.398,3.565c-0.014,0.112-0.03,0.225-0.044,0.337c-0.13,1.021-0.271,2.042-0.421,3.065
		c-0.04,0.274-0.08,0.547-0.121,0.822c-0.168,1.117-0.344,2.234-0.529,3.347c-0.002,0.014-0.005,0.029-0.007,0.043
		c-0.77,4.605-1.668,9.159-2.525,13.512c-0.727,3.69-1.414,7.173-1.986,10.491l13.353-22.797c0,0,21.65-46.139,68.838-46.139
		s58.162,53.064,58.162,53.064S365.912,278.896,268.126,322.308z"/>
	<path style="fill:#89684D;" d="M208.619,449.075c1.483,0.093,2.931,0.195,4.294,0.312c-0.08-0.17-0.159-0.352-0.239-0.525
		C211.341,448.917,209.989,448.988,208.619,449.075z"/>
	<path style="fill:#89684D;" d="M415.984,463.143c4.95-22.209,14.625-76.317,5.53-128.088
		c-5.059-28.798-33.435-71.403-84.339-126.632c-37.429-40.609-76.062-75.857-83.619-82.407c-0.388-0.335-0.772-0.709-1.155-1.117
		c-0.125-0.133-0.246-0.29-0.37-0.431c-0.256-0.289-0.513-0.573-0.766-0.892c-0.152-0.192-0.302-0.409-0.453-0.611
		c-0.221-0.295-0.442-0.579-0.661-0.895c-0.165-0.238-0.326-0.5-0.489-0.748c-0.201-0.306-0.404-0.603-0.603-0.924
		c-0.174-0.282-0.344-0.584-0.515-0.877c-0.183-0.313-0.369-0.615-0.548-0.939c-0.186-0.332-0.365-0.683-0.548-1.027
		c-0.162-0.306-0.327-0.602-0.487-0.916c-0.192-0.375-0.377-0.767-0.565-1.154c-0.145-0.299-0.294-0.59-0.437-0.895
		c-0.201-0.428-0.396-0.868-0.594-1.307c-0.124-0.276-0.25-0.545-0.372-0.824c-0.214-0.489-0.421-0.988-0.629-1.488
		c-0.099-0.237-0.2-0.469-0.297-0.707c-0.222-0.546-0.439-1.099-0.654-1.652c-0.077-0.197-0.157-0.393-0.233-0.59
		c-0.224-0.584-0.44-1.173-0.655-1.762c-0.062-0.171-0.127-0.34-0.189-0.511c-0.232-0.642-0.456-1.287-0.677-1.929
		c-0.039-0.114-0.081-0.228-0.119-0.341c-0.233-0.688-0.459-1.373-0.679-2.054c-0.023-0.07-0.048-0.142-0.07-0.212
		c-0.227-0.707-0.446-1.41-0.658-2.105c-0.013-0.045-0.029-0.09-0.042-0.134c-0.219-0.72-0.428-1.432-0.629-2.134
		c-0.006-0.019-0.012-0.038-0.017-0.057c-0.206-0.721-0.403-1.43-0.59-2.126l0,0c-0.025-0.093-0.052-0.189-0.077-0.281
		c5.546-2.963,11.054-2.731,17.227-2.473c1.62,0.068,3.296,0.138,4.947,0.138c2.032,0,8.217,0,27.856-14.514
		c11.989-8.862,22.898-18.761,29.93-27.162c7.826-9.348,10.92-16.79,9.735-23.417c-1.401-7.838-5.78-14.398-12.664-18.97
		c-13.094-8.695-32.118-8.686-45.256-7.287c7.65,0.984,15.232,3.146,21.466,7.287c6.884,4.574,11.263,11.133,12.664,18.97
		c1.185,6.626-1.908,14.067-9.735,23.417c-7.032,8.402-17.941,18.301-29.93,27.162c-19.639,14.514-25.824,14.514-27.856,14.514
		c-1.651,0-3.326-0.071-4.947-0.138c-0.058-0.002-0.107,0.004-0.163,0.002c-2.141-0.858-3.365-1.341-3.365-1.341
		s-17.172,31.438-4.762,42.193c12.41,10.754,153.659,139.197,165.015,203.842c6.892,39.235,2.523,80.399-1.978,106.7
		c-2.217,12.96,3.727,26.2,15.23,32.568c5.503,3.046,10.007,8.041,10.334,16.232c0.249,6.216-6.09,9.245-15.279,10.401
		c-11.903,1.636-21.902,3.309-30.228,5.005c6.021,1.052,13.733,2.255,21.893,3.158c2.993,0.331,5.798,0.59,8.444,0.793l0,0
		c0.002,0,0.005,0,0.007,0c2.347,0.18,4.559,0.31,6.652,0.398c0.207,0.01,0.41,0.017,0.615,0.025
		c0.797,0.031,1.576,0.056,2.337,0.074c0.237,0.006,0.476,0.013,0.709,0.018c0.928,0.018,1.838,0.03,2.712,0.03
		c18.065,0,25.082-3.728,28.879-6.915c4.054-3.402,6.171-8.142,5.963-13.344C444.49,473.286,429.237,465.594,415.984,463.143z"/>
	<path style="fill:#89684D;" d="M112.749,121.422c7.343,5.605,14.079,10.408,18.735,13.648c0.021,0.015,0.043,0.03,0.064,0.045
		c0.01,0.007,0.02,0.014,0.03,0.021c4.317,3.002,6.88,9.608,8.413,17.934l43.674-14.444
		C163.92,136.691,112.749,121.422,112.749,121.422z"/>
</g>
<path style="fill:#DDCEBF;" d="M247.403,43.411c-40.546,20.558-18.718,47.155-18.718,47.155c3.507,1.806,6.954,3.333,10.319,4.639
	c-0.075-0.275-0.156-0.558-0.228-0.829c5.546-2.963,11.054-2.731,17.226-2.473c1.62,0.068,3.296,0.138,4.947,0.138
	c2.032,0,8.217,0,27.856-14.514c11.989-8.862,22.898-18.761,29.93-27.162c7.826-9.348,10.92-16.79,9.735-23.417
	c-0.421-2.359-1.118-4.6-2.066-6.708c-3.594-0.784-7.438-1.268-11.38-1.268C288.924,19.665,282.944,25.39,247.403,43.411z"/>
<path style="fill:#B7A89A;" d="M328.47,26.948c-0.421-2.359-1.118-4.6-2.066-6.708c-3.594-0.784-7.438-1.268-11.38-1.268
	c-5.157,0.137-9.521,0.475-13.489,1.06c0.358,0.071,0.726,0.131,1.08,0.208c0.948,2.108,1.645,4.349,2.066,6.708
	c1.185,6.626-1.908,14.067-9.735,23.417c-7.032,8.402-17.941,18.301-29.93,27.162c-19.639,14.514-25.824,14.514-27.856,14.514
	c-1.651,0-3.326-0.071-4.947-0.138c-0.307-0.013-0.611-0.025-0.916-0.038c2.609,1.254,5.18,2.359,7.707,3.339
	c-0.075-0.275-0.156-0.558-0.228-0.829c5.546-2.963,11.054-2.731,17.226-2.473c1.62,0.068,3.296,0.138,4.947,0.138
	c2.032,0,8.217,0,27.856-14.514c11.989-8.862,22.898-18.761,29.93-27.162C326.562,41.016,329.655,33.574,328.47,26.948z"/>
<g>
	<path style="fill:#89684D;" d="M144.775,233.791l53.025-15.571l12.366-40.836c0.596-1.967-2.01-3.268-3.224-1.607l-19.828,27.141
		L144.775,233.791L144.775,233.791z"/>
	<path style="fill:#89684D;" d="M179.636,290.268c0,0,14.174-18.826,30.426-25.452l45.084-37.171
		c1.797-1.482,4.394,0.412,3.514,2.569c-6.604,16.201-30.679,58.638-70.807,66.61L179.636,290.268z"/>
</g>
<path d="M145.811,70.921c-5.672,0-10.285-4.607-10.285-10.269s4.614-10.268,10.285-10.268c5.672,0,10.286,4.606,10.286,10.268
	S151.483,70.921,145.811,70.921z"/>
<g>
</g>
<g>
</g>
<g>
</g>
<g>
</g>
<g>
</g>
<g>
</g>
<g>
</g>
<g>
</g>
<g>
</g>
<g>
</g>
<g>
</g>
<g>
</g>
<g>
</g>
<g>
</g>
<g>
</g>
</svg>
