<?xml version="1.0" encoding="iso-8859-1"?>
<!-- Generator: Adobe Illustrator 19.0.0, SVG Export Plug-In . SVG Version: 6.00 Build 0)  -->
<svg version="1.1" id="Capa_1" xmlns="http://www.w3.org/2000/svg" xmlns:xlink="http://www.w3.org/1999/xlink" x="0px" y="0px"
	 viewBox="0 0 385.364 385.364" style="enable-background:new 0 0 385.364 385.364;" xml:space="preserve">
<path style="fill:#1B1B1B;" d="M52.853,77.873c-3.968,0.649-7.711-2.041-8.36-6.009c-0.6-3.668,1.659-7.199,5.24-8.191
	c12.953-2.243,26.283-0.28,38.04,5.6c-1.499-13.053,1.22-26.244,7.76-37.64c2.143-3.402,6.638-4.423,10.04-2.28
	c3.402,2.143,4.423,6.638,2.28,10.04c-9.037,16.016-7.734,35.863,3.32,50.56c2.298,3.314,1.474,7.863-1.84,10.16
	s-7.863,1.474-10.16-1.84C89.156,82.876,70.975,74.869,52.853,77.873L52.853,77.873z"/>
<g>
	<path style="fill:#1B1B1B;" d="M261.333,290.033l49.08,84.24c1.847,2.893,1.169,6.719-1.56,8.8l-1.76,1.24
		c-2.889,1.868-6.729,1.187-8.8-1.56l-62.44-74.92c-37.12,12.24-89.6-13.48-124.84-64c-39.96-56.88-41.44-123.12-4.68-148.96
		s97.76-1.08,137.72,56C279.293,201.233,285.493,259.353,261.333,290.033L261.333,290.033z"/>
	<g>
		<path style="fill:#FFED00;" d="M275.293,252.713c1.122-12.34,0.34-24.778-2.32-36.88c-49.072,1.545-92.576,31.987-110.84,77.56
			c10.455,6.639,21.868,11.63,33.84,14.8C213.805,279.717,242.429,259.696,275.293,252.713L275.293,252.713z"/>
		<path style="fill:#FFED00;" d="M181.973,203.793c23.244-16.305,51.402-24.089,79.72-22.04
			c-4.914-10.803-10.819-21.127-17.64-30.84l-2.2-3.08c-61.332-6.477-118.057,33.235-132.96,93.08l2.12,3.12
			c6.799,9.73,14.485,18.809,22.96,27.12C141.742,243.843,158.696,220.051,181.973,203.793L181.973,203.793z"/>
		<path style="fill:#FFED00;" d="M133.973,135.233c21.916-15.376,48.244-23.197,75-22.28c-35.68-28.96-76.68-37.84-104-18.84
			s-32.8,60.56-17.8,104C95.514,172.618,111.946,150.541,133.973,135.233L133.973,135.233z"/>
	</g>
	<path style="fill:#E1EFDA;" d="M159.413,86.793c0,0,137.24-27.44,192,50.72s-23.8,136.6-78.44,78.28
		c-5.201-23.344-15.035-45.407-28.92-64.88C220.333,117.033,188.653,94.313,159.413,86.793L159.413,86.793z M79.733,142.553
		c0,0-72.72,119.56-18,197.72s136.52,24.44,100.4-46.88c-20.158-12.869-37.528-29.654-51.08-49.36
		C87.333,210.153,76.653,172.713,79.733,142.553z"/>
</g>
<g>
	<circle style="fill:#F16730;" cx="33.389" cy="68.928" r="18"/>
	<circle style="fill:#F16730;" cx="106.061" cy="18.002" r="18"/>
</g>
<g>
</g>
<g>
</g>
<g>
</g>
<g>
</g>
<g>
</g>
<g>
</g>
<g>
</g>
<g>
</g>
<g>
</g>
<g>
</g>
<g>
</g>
<g>
</g>
<g>
</g>
<g>
</g>
<g>
</g>
</svg>
