<?xml version="1.0" encoding="iso-8859-1"?>
<!-- Generator: Adobe Illustrator 19.0.0, SVG Export Plug-In . SVG Version: 6.00 Build 0)  -->
<svg version="1.1" id="Capa_1" xmlns="http://www.w3.org/2000/svg" xmlns:xlink="http://www.w3.org/1999/xlink" x="0px" y="0px"
	 viewBox="0 0 480 480" style="enable-background:new 0 0 480 480;" xml:space="preserve">
<g>
	<path style="fill:#FADBB7;" d="M368,352h32v104h-32V352z"/>
	<path style="fill:#FADBB7;" d="M112,320h32v136h-32V320z"/>
	<path style="fill:#FADBB7;" d="M344,200h63.032c10.865,0,21.285,4.317,28.968,12s18.103,12,28.968,12H472c0,17.673-14.327,32-32,32
		h-7.032c-10.865,0-21.285-4.317-28.968-12s-18.103-12-28.968-12H344V200z"/>
	<path style="fill:#FADBB7;" d="M24,184v40c17.673,0,32-14.327,32-32v-8H24z"/>
</g>
<path style="fill:#763A02;" d="M152,72c0-17.673,14.327-32,32-32h9.376c8.837,0,16-7.163,16-16s-7.163-16-16-16H184
	c-35.346,0-64,28.654-64,64v16h32V72z"/>
<path style="fill:#FCE9CC;" d="M352,200H232c-44.183,0-80-35.817-80-80h8c17.673,0,32-14.327,32-32h-72L8,128v56h80v94.864
	c0,21.217,8.429,41.565,23.432,56.568l9.136,9.136C135.571,359.571,144,379.919,144,401.136V472h32v-88c0-8.837,7.163-16,16-16h192
	c8.837,0,16,7.163,16,16v88h32V280C432,235.817,396.183,200,352,200z"/>
<circle cx="88" cy="136" r="8"/>
<path d="M464.968,216c-8.749,0.026-17.144-3.452-23.312-9.656c-9.162-9.214-21.63-14.379-34.624-14.344H232
	c-36.654-0.041-67.444-27.578-71.56-64c21.908-0.267,39.535-18.09,39.56-40c0-4.418-3.582-8-8-8h-32v-8c0-13.255,10.745-24,24-24
	h9.368c13.255,0,24-10.745,24-24s-10.745-24-24-24H184c-39.746,0.044-71.956,32.254-72,72v10.36L5.312,120.472
	C2.129,121.607,0.003,124.621,0,128v56c0,4.418,3.582,8,8,8h8v40h8c22.08-0.026,39.974-17.92,40-40h16v86.856
	c-0.037,22.427,8.557,44.009,24,60.272V464h32v8c0,4.418,3.582,8,8,8h32c4.418,0,8-3.582,8-8v-88c0-4.418,3.582-8,8-8h168v88h32v8
	c0,4.418,3.582,8,8,8h32c4.418,0,8-3.582,8-8V280c-0.021-5.369-0.535-10.725-1.536-16H440c22.08-0.026,39.974-17.92,40-40v-8
	L464.968,216z M184,16h9.368c4.418,0,8,3.582,8,8s-3.582,8-8,8H184c-22.08,0.026-39.974,17.92-40,40v8h-16v-8
	C128.035,41.087,153.087,16.035,184,16z M32,214.632V192h16C47.988,202.168,41.582,211.229,32,214.632z M136,448h-16v-92.096
	c1.352,1.664,2.624,3.376,3.816,5.136c0.296,0.44,0.552,0.904,0.8,1.352c0.904,1.408,1.776,2.832,2.584,4.296
	c0.376,0.696,0.712,1.408,1.072,2.112c0.632,1.264,1.248,2.528,1.808,3.824c0.344,0.8,0.648,1.6,0.96,2.4
	c0.491,1.259,0.947,2.533,1.368,3.824c0.272,0.8,0.528,1.664,0.8,2.512c0.376,1.312,0.696,2.64,0.992,4
	c0.184,0.8,0.384,1.648,0.536,2.488c0.272,1.464,0.472,2.952,0.656,4.44c0.088,0.72,0.208,1.44,0.28,2.168
	c0.208,2.224,0.328,4.456,0.328,6.72L136,448z M392,448h-16v-72h8c4.418,0,8,3.582,8,8V448z M424,464h-16v-80
	c0-13.255-10.745-24-24-24H192c-13.255,0-24,10.745-24,24v80h-16v-62.856c0.064-23.352-9.218-45.758-25.776-62.224l-8.568-8.568
	l-0.568-0.568c-13.55-13.478-21.144-31.817-21.088-50.928V184c0-4.418-3.582-8-8-8H16v-16h24v-16H16v-10.36L121.376,96h61.248
	c-3.4,9.58-12.458,15.987-22.624,16h-8c-4.418,0-8,3.582-8,8c0.053,48.579,39.421,87.947,88,88h120
	c39.755,0.022,71.978,32.245,72,72V464z M440,248h-6.032c-0.072-0.176-0.176-0.336-0.248-0.512c-1.425-3.571-3.082-7.045-4.96-10.4
	c-0.296-0.528-0.584-1.056-0.888-1.6c-1.881-3.218-3.965-6.312-6.24-9.264c-0.384-0.496-0.8-0.992-1.168-1.48
	c-2.308-2.88-4.795-5.61-7.448-8.176c-0.424-0.408-0.856-0.8-1.28-1.184c-2.734-2.548-5.628-4.918-8.664-7.096
	c-0.128-0.096-0.24-0.208-0.368-0.304h4.328c8.749-0.026,17.144,3.452,23.312,9.656c8.596,8.649,20.13,13.749,32.312,14.288
	C459.287,241.555,450.2,248.001,440,248L440,248z"/>
<g>
</g>
<g>
</g>
<g>
</g>
<g>
</g>
<g>
</g>
<g>
</g>
<g>
</g>
<g>
</g>
<g>
</g>
<g>
</g>
<g>
</g>
<g>
</g>
<g>
</g>
<g>
</g>
<g>
</g>
</svg>
